<mxfile host="Electron" agent="Mozilla/5.0 (Macintosh; Intel Mac OS X 10_15_7) AppleWebKit/537.36 (KHTML, like Gecko) draw.io/26.2.2 Chrome/134.0.6998.178 Electron/35.1.2 Safari/537.36" version="26.2.2">
  <diagram name="Strona-1" id="8rQZV9c1amdXB_IJOCFU">
    <mxGraphModel dx="948" dy="1219" grid="1" gridSize="10" guides="1" tooltips="1" connect="1" arrows="1" fold="1" page="1" pageScale="1" pageWidth="827" pageHeight="1169" math="0" shadow="0">
      <root>
        <mxCell id="0" />
        <mxCell id="1" parent="0" />
        <mxCell id="WKL2m-RPJgo-NSxanmqy-3" value="&lt;font style=&quot;font-size: 16px;&quot;&gt;System:&lt;/font&gt;&lt;div&gt;&lt;font style=&quot;font-size: 16px;&quot;&gt;Operacje Magazynowe&lt;/font&gt;&lt;/div&gt;" style="shape=umlFrame;whiteSpace=wrap;html=1;pointerEvents=0;width=110;height=70;" parent="1" vertex="1">
          <mxGeometry x="80" y="230" width="440" height="750" as="geometry" />
        </mxCell>
        <mxCell id="5ZsAqqkpCj7N6Lt8FjrT-1" style="edgeStyle=orthogonalEdgeStyle;rounded=0;orthogonalLoop=1;jettySize=auto;html=1;exitX=1;exitY=0.5;exitDx=0;exitDy=0;" edge="1" parent="1" source="WKL2m-RPJgo-NSxanmqy-4" target="WKL2m-RPJgo-NSxanmqy-6">
          <mxGeometry relative="1" as="geometry" />
        </mxCell>
        <mxCell id="WKL2m-RPJgo-NSxanmqy-4" value="&lt;font style=&quot;font-size: 18px;&quot;&gt;Automatyczne powiadomienie o niskim stanie&lt;/font&gt;" style="ellipse;whiteSpace=wrap;html=1;" parent="1" vertex="1">
          <mxGeometry x="130" y="584" width="310" height="226" as="geometry" />
        </mxCell>
        <mxCell id="WKL2m-RPJgo-NSxanmqy-6" value="&lt;font style=&quot;font-size: 20px;&quot;&gt;UÅ¼ytkownik&lt;/font&gt;" style="shape=umlActor;verticalLabelPosition=bottom;verticalAlign=top;html=1;" parent="1" vertex="1">
          <mxGeometry x="570" y="450" width="160" height="320" as="geometry" />
        </mxCell>
        <mxCell id="WKL2m-RPJgo-NSxanmqy-9" style="edgeStyle=orthogonalEdgeStyle;rounded=0;orthogonalLoop=1;jettySize=auto;html=1;exitX=0.5;exitY=1;exitDx=0;exitDy=0;" parent="1" source="WKL2m-RPJgo-NSxanmqy-8" target="WKL2m-RPJgo-NSxanmqy-4" edge="1">
          <mxGeometry relative="1" as="geometry" />
        </mxCell>
        <mxCell id="WKL2m-RPJgo-NSxanmqy-8" value="&lt;font style=&quot;font-size: 20px;&quot;&gt;System&lt;/font&gt;" style="ellipse;shape=umlEntity;whiteSpace=wrap;html=1;" parent="1" vertex="1">
          <mxGeometry x="230" y="320" width="160" height="140" as="geometry" />
        </mxCell>
        <mxCell id="WKL2m-RPJgo-NSxanmqy-10" value="&lt;font style=&quot;font-size: 20px;&quot;&gt;&lt;b&gt;Powiadomienie o niskim stanie&amp;nbsp;&lt;/b&gt;&lt;/font&gt;" style="text;html=1;align=center;verticalAlign=middle;resizable=0;points=[];autosize=1;strokeColor=none;fillColor=none;" parent="1" vertex="1">
          <mxGeometry x="254" y="33" width="320" height="40" as="geometry" />
        </mxCell>
      </root>
    </mxGraphModel>
  </diagram>
</mxfile>
